<svg xmlns="http://www.w3.org/2000/svg" xmlns:xlink="http://www.w3.org/1999/xlink" viewBox="0 0 1327 1327"><defs><style>.cls-1,.cls-12{fill:none;}.cls-2{fill:#231f20;}.cls-10,.cls-11,.cls-12,.cls-3,.cls-4{stroke:#000;stroke-miterlimit:10;}.cls-3{fill:url(#_10_dpi_90_);}.cls-4{fill:#333;}.cls-10,.cls-5{fill:#404040;}.cls-6{fill:#666;}.cls-7{fill:#202020;}.cls-8{fill:#4d4d4d;}.cls-9{fill:gray;}.cls-11{fill:#0d0c0c;}.cls-11,.cls-12{stroke-width:0.75px;}</style><pattern id="_10_dpi_90_" data-name="10 dpi 90%" x="100" y="26" width="28.8" height="28.8" patternUnits="userSpaceOnUse" viewBox="0 0 28.8 28.8"><rect class="cls-1" width="28.8" height="28.8"/><path class="cls-2" d="M28.8,35.28a6.48,6.48,0,1,0-6.48-6.48A6.48,6.48,0,0,0,28.8,35.28Z"/><path class="cls-2" d="M14.4,35.28A6.48,6.48,0,1,0,7.92,28.8,6.48,6.48,0,0,0,14.4,35.28Z"/><path class="cls-2" d="M28.8,20.88a6.48,6.48,0,1,0-6.48-6.48A6.48,6.48,0,0,0,28.8,20.88Z"/><path class="cls-2" d="M14.4,20.88A6.48,6.48,0,1,0,7.92,14.4,6.48,6.48,0,0,0,14.4,20.88Z"/><path class="cls-2" d="M7.2,28.08A6.48,6.48,0,1,0,.72,21.6,6.48,6.48,0,0,0,7.2,28.08Z"/><path class="cls-2" d="M21.6,28.08a6.48,6.48,0,1,0-6.48-6.48A6.48,6.48,0,0,0,21.6,28.08Z"/><path class="cls-2" d="M7.2,13.68A6.48,6.48,0,1,0,.72,7.2,6.48,6.48,0,0,0,7.2,13.68Z"/><path class="cls-2" d="M21.6,13.68A6.48,6.48,0,1,0,15.12,7.2,6.48,6.48,0,0,0,21.6,13.68Z"/><path class="cls-2" d="M0,35.28a6.48,6.48,0,1,0,0-13A6.48,6.48,0,0,0-6.48,28.8,6.48,6.48,0,0,0,0,35.28Z"/><path class="cls-2" d="M0,20.88a6.48,6.48,0,0,0,0-13A6.48,6.48,0,0,0-6.48,14.4,6.48,6.48,0,0,0,0,20.88Z"/><path class="cls-2" d="M28.8,6.48A6.48,6.48,0,0,0,35.28,0,6.48,6.48,0,0,0,28.8-6.48,6.48,6.48,0,0,0,22.32,0,6.48,6.48,0,0,0,28.8,6.48Z"/><path class="cls-2" d="M14.4,6.48A6.48,6.48,0,0,0,20.88,0,6.48,6.48,0,0,0,14.4-6.48,6.48,6.48,0,0,0,7.92,0,6.48,6.48,0,0,0,14.4,6.48Z"/><circle class="cls-2" r="6.48" transform="translate(0 0) rotate(-85.27)"/></pattern></defs><g id="Layer_12" data-name="Layer 12"><rect class="cls-3" x="0.5" y="0.5" width="1326" height="1326"/></g><g id="Layer_6" data-name="Layer 6"><rect class="cls-4" x="792.5" y="358.5" width="40" height="72"/><path class="cls-5" d="M182.5,616.5l-128,67s-19,65-19,105,12,91,12,91,54-60,74-104,83-127,80-150S182.5,616.5,182.5,616.5Z" transform="translate(100 26)"/><path d="M180,612.18,75.57,666.83,55,677.58a25.43,25.43,0,0,0-3.06,1.6c-2.42,1.73-2.81,4.73-3.56,7.44-8.23,29.76-15.5,60.53-17.55,91.41-1.44,21.78,1.32,43.84,4.68,65.33,2,12.55,4.23,25.1,7.13,37.47.83,3.56,5.87,5,8.36,2.21,11.43-12.72,22.22-26,32.65-39.58,9.25-12,18.16-24.26,26.31-37,7.2-11.28,13-23,19-35,12.09-24.1,27.16-46.7,41.33-69.59,12.38-20,26.57-40.68,34.06-63.18,3-9.11,3.73-21.47-4.24-28.45-6.44-5.62-15.45-2.19-21.16,2.72-4.88,4.21,2.22,11.26,7.08,7.08.73-.64-.83.46.64-.47a26.79,26.79,0,0,1,2.86-1.66c3-1.24,4.47-.55,5.8,2.87,2.76,7.12.25,13.63-2.58,20.47-8.82,21.35-22.1,41.1-34.25,60.65-13.16,21.19-27,42.2-38.18,64.51-5.47,10.89-10.66,21.71-17.13,32.07-7.46,11.94-15.63,23.44-24.12,34.67C68,847.86,56.3,862.25,44,876l8.36,2.21a443.25,443.25,0,0,1-11.48-77.24c-1.63-31.12,4.78-62,12.14-92.08,2-8,4-16.07,6.34-24l-2.3,3L169,629.2l16-8.38C190.73,617.83,185.68,609.2,180,612.18Z" transform="translate(100 26)"/><path class="cls-5" d="M230.5,651.5c8,60,39,111,21,167s-33,83-33,83,118-48,99-115-70-162-70-162-17-17-17,5Z" transform="translate(100 26)"/><path d="M225.68,652.83c5.62,41,23.68,79.78,26.1,121.19A120.19,120.19,0,0,1,250,804.08c-2,10.55-5.78,20.74-9.3,30.87-5.41,15.62-11.28,31.1-18,46.21-2.67,6-5.38,12.06-8.57,17.82-1.9,3.44,1.37,9.09,5.65,7.34a269.13,269.13,0,0,0,47.4-25.5c23.42-15.65,48.69-37,55.62-65.65,4-16.73-.78-32.08-6.12-47.92-6.76-20-14.77-39.66-23.24-59q-18.6-42.57-40.34-83.73c-3.51-6.65-13-13.73-20.7-10.43-9.49,4.07-6.95,19.3-6.95,27.29V651.5c0,6.43,10,6.45,10,0V633.26c0-2-.5-9.15.74-10s5.69,3.15,7.29,4.37c1.15.88-.72-1.5-.07-.07.44,1,1,1.89,1.5,2.82Q265,668.53,282.54,708c8.06,18.16,15.65,36.55,22.27,55.3,5,14.13,11.52,29.39,9.3,44.68-3.85,26.53-27.16,47-47.92,61.47a282,282,0,0,1-33.94,20.14c-3.77,1.91-7.57,3.75-11.43,5.48l-3.47,1.54c-1.29.56,1.06-.44-.18.07l5.65,7.34c10.44-18.86,18.05-39.67,25.28-59.91s14-40.29,13.93-62.09c0-20.26-4.55-40.23-9.72-59.72-6.35-23.9-13.62-47.56-17-72.13C234.45,643.82,224.81,646.53,225.68,652.83Z" transform="translate(100 26)"/><path class="cls-6" d="M-6.5,1108.5s50-84,91-130,211-96,239-110-13-200-13-200l352,40.1c1,17.9,7,171.9,59,171.9s297,34,319,60,66,135,66,135" transform="translate(100 26)"/><path d="M-2.18,1111c24.79-41.61,51.61-83,82.67-120.23,6.84-8.19,13.85-15.64,22.51-21.91a251.52,251.52,0,0,1,29.52-18c24.23-12.88,49.61-23.54,75.12-33.58,24.33-9.58,48.93-18.44,73.54-27.29,9.24-3.32,18.49-6.62,27.67-10.1,5.73-2.18,12-4.12,17.34-7.21,11.25-6.52,11.61-24.6,12-35.87.71-21.18-1.63-42.49-4.32-63.46-2.82-22-6.41-43.94-10.46-65.77-2.36-12.75-4.07-26.15-7.68-38.63-.17-.59-.27-1.22-.4-1.83l-4.82,6.33L430,687.11l189,21.53,43.49,5-5-5c2.3,41.72,5.55,84.53,18.24,124.57,5.74,18.09,14.56,41.23,33.23,49.59,7.2,3.23,14.87,2.65,22.55,3,9.24.45,18.45,1.24,27.65,2.11,55,5.21,109.89,13.29,164.21,23.38,25.34,4.7,50.7,9.81,75.53,16.78a215.1,215.1,0,0,1,25.6,8.51c4.92,2.07,9.87,4.54,12.66,7.72,6.84,7.78,11.74,17.85,16.57,26.93,6.83,12.84,13.11,26,19.2,39.19q14.34,31.14,27.31,62.92c.48,1.16,1,2.33,1.43,3.5,2.38,5.89,12,3.32,9.64-2.66-6.38-15.8-13.09-31.49-20-47.08-11.18-25.39-22.55-51.08-36.82-74.91-4-6.7-8.21-14.25-14.72-18.83-5.51-3.87-12.06-6.34-18.34-8.64-20.91-7.64-42.94-12.45-64.7-17C900.88,896,844.17,887.46,787.45,880.9c-19.88-2.3-39.89-4.58-59.91-5.28-7.26-.25-13.46-.31-19.52-5-7.43-5.71-12.28-14.51-16.12-22.86C681.46,825.12,677,799.49,673.47,775c-2.84-19.86-4.54-39.88-5.63-59.91-.12-2.15-.22-4.3-.34-6.45-.16-2.94-2.18-4.68-5-5L543,690,354,668.45l-43.49-5c-3.42-.39-5.45,3.49-4.82,6.33,6.37,28.92,11.63,58.15,15.95,87.45,3.21,21.8,5.93,43.81,6.55,65.86a154.25,154.25,0,0,1-.91,25.61,52.38,52.38,0,0,1-2.1,9.26,24.83,24.83,0,0,1-2.51,4.87c-1.05,1.24-2.1,1.54-4.5,2.62s-5.18,2.18-8.11,3.31c-8.44,3.28-17,6.34-25.48,9.41-23.81,8.58-47.65,17.09-71.26,26.22-25.67,9.92-51.22,20.39-75.85,32.7-19.06,9.52-39.26,20.13-54.33,35.51-10,10.21-18.7,22-27.29,33.36-9.77,13-19.11,26.26-28.19,39.71Q8.65,1073.86-9,1102.9c-.62,1-1.24,2-1.85,3.08-3.3,5.54,5.34,10.57,8.64,5Z" transform="translate(100 26)"/><path class="cls-6" d="M251.5,579.76c36.8,72.65,83.07,114.35,110,135.1a364.41,364.41,0,0,0,53,34c30.32,15.86,77.74,40.65,126,37.91,79.44-4.52,124-79.28,140-103.29,42.76-64.2,48.22-134,48-210.66-.18-62.15-1.06-66.79-9-101.34,3.68-15.84-.91-85.82-5-113.47-14.21-96.12-105.22-147.7-119-155.51-86.66-49.13-197.81-43.27-281,4.86-93.25,53.94-121.73,143.86-129,168.15-29.21,97.6,3.27,180.66,17,215.78A384,384,0,0,0,251.5,579.76Z" transform="translate(100 26)"/><path d="M247.18,582.28c32.86,64.53,81.4,120.41,143.18,158.59,13.09,8.09,26.75,15.21,40.53,22,18.66,9.24,38,17.53,58.11,22.9,38,10.13,77.08,7.55,111.67-11.78,26.06-14.56,47.25-36.31,65-60s33.72-49.25,44.65-76.83C725.8,598,731.24,555.81,732.87,514c.85-21.78.73-43.59.48-65.38-.15-13.77-.31-27.62-1.92-41.31a308.18,308.18,0,0,0-6.13-32.87,15.39,15.39,0,0,0-.48-2.09c-1.1-2.67-.37.94-.3-.46.05-1,.32-2,.45-3,.3-2.37.49-4.74.62-7.11.34-6.54.3-13.11.17-19.65-.3-16.32-1.27-32.63-2.56-48.9-1.14-14.35-2.31-28.84-5-43-11.06-59.14-52.62-107.59-101.41-140.44C561.4,72.48,493.44,57.68,427.26,65.38c-78.47,9.12-150.88,48.44-198.41,111.9a304.48,304.48,0,0,0-59.26,156.55c-3.07,38.55,1.93,77.49,12.67,114.57a444,444,0,0,0,37.3,90.93,393.09,393.09,0,0,0,27.62,42.95c3.78,5.13,12.46.14,8.64-5a400.59,400.59,0,0,1-51.37-94.64c-10.77-28-19.26-57-23.19-86.8A292.58,292.58,0,0,1,213,221.1c33.6-63.54,90-111.5,158.58-133.55,73.3-23.56,156-18.25,223.3,20.35,40.68,23.35,77.23,57.24,98.4,99.5,14.18,28.3,17.89,58.55,20.23,89.67,1.18,15.57,2.07,31.19,2.3,46.8.1,6.25.12,12.51-.25,18.74-.3,5.11-1.21,8.7,0,14,2.35,10.29,4.73,20.62,5.94,31.13,1.5,13.07,1.69,26.28,1.85,39.43.52,41.85.85,84.18-6,125.6-6.52,39.61-20.28,76.54-42.4,110.09-12.74,19.33-26,38.14-42.53,54.47-22.44,22.12-50.29,39.05-81.88,43.53-41.63,5.91-82.73-10.41-119.17-28.83-27.94-14.13-54.56-30.28-78.57-50.51A378.73,378.73,0,0,1,288,630.68a429.41,429.41,0,0,1-32.14-53.45C252.9,571.5,244.27,576.55,247.18,582.28Z" transform="translate(100 26)"/><path d="M568.68,434.83q6.44,18.39,13.18,36.67c2.91,7.88,5.84,15.76,9.06,23.52a40,40,0,0,0,6.67,11c3.8,4.45,8.95,7.32,13,11.55,3.43,3.6,6.81,7.9,8.25,12.73.44,1.46,1.46,4.62.84,6.07-.76,1.75-2.91,1-5.06,1-4.34,0-9.57-.28-13.78,1-5,1.48-8.91,6-13,9-18.52,13.74-39.72-5-59.57-3.87-3.75.21-6.73,1.27-10.23,2.43a8.42,8.42,0,0,1-8.06-1c-1.9-1.24-4.21-2.88-3.89-5.39.37-3,4.55-6.79,6.48-8.94s4-4.27,6.14-6.3c2.68-2.55,5.46-5,8.37-7.33,5-4-2.08-11-7.08-7.08a102.89,102.89,0,0,0-20.54,21.19c-3.64,5.18-4.76,11.13-1,16.59a21.52,21.52,0,0,0,14.05,8.77c4.78.63,8.3-1.31,12.68-2.51a25,25,0,0,1,12.06,0c5.16,1.39,10.06,3.7,15.3,5A122.11,122.11,0,0,0,573,562.4a28.16,28.16,0,0,0,17.69-4.84c4.22-2.75,8.55-8.42,13.43-9.69,5.33-1.39,11.43.27,16.86-.75s8.54-5.17,8.73-10.72c.39-11.64-7.4-22.25-15.81-29.49-4.81-4.14-9.71-7.28-12.67-13.16-1.72-3.43-3-7.17-4.35-10.76-6.49-16.81-12.55-33.81-18.51-50.82-2.11-6-11.78-3.44-9.64,2.66Z" transform="translate(100 26)"/><path class="cls-7" d="M499.48,357.86l-5.85-21.64A15.36,15.36,0,0,0,482,326.89c-18.27-2.89-67.6-8.15-97.28-.64-38.09,9.63-68.52,43.66-68.52,43.66s58.65-18.62,73.06-20c12.17-1.15,83.76,10,105.64,13.48A4.28,4.28,0,0,0,499.48,357.86Z" transform="translate(100 26)"/><path d="M504.3,356.53l-3.69-13.65c-1.5-5.53-2.47-10.67-6.59-15-5.55-5.83-13.36-6.28-20.85-7.23q-12.33-1.56-24.75-2.39c-19.1-1.29-38.61-1.64-57.55,1.61S354.6,332,339.24,343.16c-9.46,6.86-18.74,14.49-26.57,23.21-3.16,3.52-.15,9.95,4.87,8.36,22.25-7.06,44.8-14.61,67.72-19.14,8.5-1.67,19,0,28.37,1.12,16.52,1.93,33,4.33,49.44,6.8q11.65,1.74,23.31,3.58c3.09.48,6.65,1.55,9.76,1.32a9.29,9.29,0,0,0,8.34-10.55c-.81-6.3-10.82-6.38-10,0,.14,1.1,2,.49-.16.42-.44,0-1-.16-1.4-.22l-3.88-.61L479.85,356q-11.19-1.74-22.39-3.38c-15.61-2.3-31.24-4.53-46.91-6.29-9.11-1-18.17-2.25-27.25-.53-13.14,2.48-26.06,6.48-38.88,10.25q-14.82,4.37-29.54,9l4.86,8.35c16.93-18.85,40.29-35.34,64.84-42,16.63-4.5,34.5-4.47,51.6-3.85a337.58,337.58,0,0,1,43.76,4c7.84,1.33,9,6.54,10.78,13l3.94,14.57C496.33,365.4,506,362.76,504.3,356.53Z" transform="translate(100 26)"/><path class="cls-7" d="M570.5,355.5l3-19c1.45-5,6.24-15.8,11-18,13-6,40.83-12.46,65-11,33,2,63,34,63,34s-46.78-12.81-61-11.09S570.5,355.5,570.5,355.5Z" transform="translate(100 26)"/><path d="M575.32,356.83c1-6.42,1.51-13.16,3.14-19.45,1.23-4.75,4.21-11.94,8.56-14.56,5.31-3.2,12.61-4.54,18.55-6,15.33-3.7,32.57-6.33,48.3-3.89,13.49,2.09,26,8.79,37,16.61A121.1,121.1,0,0,1,709,345l4.87-8.36c-8-2.18-16-4.14-24.07-5.95-11.64-2.61-24.32-6-36.35-5.46-8.91.36-18,3.75-26.42,6.32-12.08,3.66-24.08,7.62-36,11.64q-10.91,3.67-21.77,7.45c-6,2.11-3.44,11.77,2.66,9.64,17.18-6,34.45-11.82,51.82-17.24,9.1-2.84,18.42-6.14,27.87-7.66,1-.16.19,0,0,0,.41-.05.83-.09,1.24-.11,1.1-.06,2.19-.06,3.28,0a77,77,0,0,1,8,.72c6.43.86,12.82,2.16,19.16,3.52q14.07,3,28,6.8c4.91,1.34,8.25-4.77,4.87-8.36-14.81-15.69-35.42-29.7-56.7-34.12-17.07-3.55-35.74-1.17-52.6,2.49a127.27,127.27,0,0,0-21.65,6.5c-6.36,2.64-9.94,7.39-12.9,13.51-4.27,8.82-5,18.25-6.51,27.83C564.68,360.47,574.32,363.18,575.32,356.83Z" transform="translate(100 26)"/><path d="M655.5,637.5c6.43,0,6.45-10,0-10s-6.45,10,0,10Z" transform="translate(100 26)"/><path class="cls-8" d="M662.86,936C932.21,912.3,920.72,912,906.13,912.74" transform="translate(100 26)"/><path d="M662.86,941c68.87-6.05,137.76-12.05,206.59-18.65,11.76-1.13,23.52-2.23,35.26-3.57,4-.46,16.58-.7,12-8.63-2-3.51-7.15-2.55-10.54-2.39-6.41.31-6.45,10.31,0,10,1.29-.06,2.58-.13,3.87-.15.45,0,.94,0,1.38,0,1.43-.17-.13.5-.48-.14,0,0,.07,0,.09,0l-1.18-.5v-8.59c0,.29-5.42-4.09.55-.23-.75-.48,1.15,0,.27-.16a7.24,7.24,0,0,0-1.44.25c-1.23.11-.22,0,.12,0l-1.56.19-4,.47c-34.49,3.88-69.11,6.76-103.68,9.89Q731.47,925,662.86,931c-6.36.56-6.42,10.57,0,10Z" transform="translate(100 26)"/><line class="cls-8" x1="539.85" y1="975.63" x2="325.15" y2="975.37"/><path d="M439.85,944.63l-72.52-.09-115.62-.14-26.56,0c-6.44,0-6.45,10,0,10l72.52.09,115.62.14,26.56,0c6.44,0,6.45-10,0-10Z" transform="translate(100 26)"/><path class="cls-6" d="M257.48,508.45c-21.33-28.84-45.61-45-57.88-38.64-15.55,8-7.87,50.17-4.44,69,3.78,20.74,8.68,47.66,29.42,59.56,3.42,2,19.54,10.56,30.09,2.66,8.66-6.49,11.17-22.32,4.26-38.2" transform="translate(100 26)"/><path d="M261.8,505.93c-8.23-11-17.32-21.45-28.18-30-7.4-5.79-16.09-11.44-25.68-12.39-19.78-1.95-23,20.66-22.71,35.46.36,19.23,4.05,39.12,8.46,57.81,4.9,20.74,14.45,40.6,35.17,49.11,10.95,4.49,24.52,5.38,32.67-4.72,9-11.1,7.34-27.38,2.22-39.73-2.42-5.87-12.1-3.3-9.64,2.65,3.8,9.19,6.65,22.43-.41,30.94-5.67,6.83-15.92,4.08-22.83.9-16.69-7.68-23.56-25-27.54-41.8a312.7,312.7,0,0,1-7.65-46.5c-.63-7.9-1.08-16.29.77-24.08,1.06-4.49,3-9.55,8.19-10.14,7.69-.88,16.08,5.15,21.81,9.5,10.27,7.79,19,17.71,26.71,28,3.81,5.09,12.5.11,8.64-5.05Z" transform="translate(100 26)"/><path class="cls-9" d="M253.74,568.54" transform="translate(100 26)"/><path d="M253.74,573.54c6.43,0,6.44-10,0-10s-6.45,10,0,10Z" transform="translate(100 26)"/><path class="cls-9" d="M232.76,530.29q-13.66-23.49-19.27-21.38c-8.8,3.32-12.23,41.07,2.24,69.39,6.48,12.66,18.92,28.06,25.89,25.18,5-2.05,6.13-12.94,5-20.22-2.74-17.11-19.93-23.81-20.73-24.11" transform="translate(100 26)"/><path d="M237.08,527.76c-4.2-7.15-17.24-32.47-28.78-21.3-4.18,4-5.63,10.58-6.47,16.09a92.73,92.73,0,0,0-.09,25.67c2.44,19.28,10,38.42,23.7,52.53,4.51,4.63,11.87,10.55,18.71,7,7.38-3.78,8.31-14.72,7.73-22-1.15-14.46-11.34-26.39-24.7-31.48-6-2.3-8.62,7.37-2.66,9.64.84.32-.82-.38-.22-.1s1,.47,1.54.73a41.9,41.9,0,0,1,4.86,2.91,27.2,27.2,0,0,1,9.46,11.33c2.3,5.42,2.87,13.14.43,18.63-.89,2-1.07,1.53-3,.49-2.54-1.38-4.64-3.69-6.55-5.82C221,581,215,566.71,212.36,552c-2-10.94-3-24.36,1-35,.32-.83,1.9-3.27,1.88-3.43s-1.12.07-1.1.12.76.45,1.12.75c5.67,4.7,9.49,12.11,13.15,18.34,3.26,5.55,11.91.52,8.64-5Z" transform="translate(100 26)"/><path class="cls-5" d="M275.5,630.5c-15.49-23.34-42.92-71.61-48-138-1.76-23-8-111.38,52-186,63.07-78.39,161.24-86.42,205-90,37.71-3.09,143.37-11.73,200,51,30.56,33.85,49.22,91.13,50.94,114.15,0,.41.06.85.06.85,2.45,34.95-5.43,61.11-6,61-.88-.16,25.48-61.2,19-139-2-24.39-11-115.49-86-189-62.44-61.23-134.64-74.78-159-79-87.29-15.14-155.08,12-205,32-75.4,30.19-168.76,67.58-211,165-43.58,100.52-4,198.66,5,221,8.26,20.48,46.12,117.94,143,162A237,237,0,0,0,275.5,630.5Z" transform="translate(100 26)"/><path d="M279.82,628A292.37,292.37,0,0,1,231.55,458.1c2.11-74.09,34.18-147.4,96.74-189.84,47.81-32.44,104.29-42.64,160.78-47.13s119.9-3.21,168.65,29.71c30.17,20.38,48.82,53.47,61.28,86.92,4.88,13.12,9.4,26.95,11.14,40.9,2.16,17.28,1,35.71-2.52,52.75-.48,2.39-1,4.78-1.67,7.13a12.64,12.64,0,0,0-.72,2.39c-.06,1.07.16-.89,1.75-1.75L733,440c1.32,1.32.11,6,1.57,3.66a13.49,13.49,0,0,0,.87-2.58c.91-2.69,1.82-5.38,2.68-8.09q4.4-13.79,7.62-27.9a334,334,0,0,0,8.35-91.22,320.3,320.3,0,0,0-27.34-114.39A287.4,287.4,0,0,0,601,64.19c-41.08-22-87.71-34.52-134.26-36.76-31.7-1.52-63.5,2.3-94.22,10.18-25.05,6.42-49.22,15.6-73.2,25.2-46.91,18.77-94.34,38-135.16,68.4C115.46,167.5,80.59,218.49,68,278.33c-11.37,54.13-4.64,111,14,162.77C91.68,467.92,103.7,494,119,518c27.72,43.52,66,80.79,113.25,102.46a246.45,246.45,0,0,0,41.89,14.82c6.24,1.59,8.9-8.05,2.66-9.64-53.25-13.58-98.73-45.74-132.36-88.8-19.72-25.23-35.23-54.1-47-83.25-16.5-41-26.3-84.57-25-128.94,1.88-62.77,27.66-122.43,73.53-165.45,37-34.73,83.37-57.13,129.86-76.26,48.36-19.9,97.39-39.9,150-44.67C473.73,34,522.82,41.6,567.39,59.45A278.24,278.24,0,0,1,703.92,176.77,300.83,300.83,0,0,1,742.8,296.91c4.85,46.77-1.07,94.13-16,138.64-1.12,3.35-3.93,8.42-.83,11.49a5.14,5.14,0,0,0,6.06.78c3.09-1.66,3.76-7.13,4.46-10.15a173.9,173.9,0,0,0,3.68-23.8c1.55-16.87,1.14-33.86-2.77-50.38-8.23-34.7-24.06-70.32-47.5-97.42-44-50.88-118-59.31-181.26-56.23-54.83,2.67-110.67,9.84-160.2,35a224.17,224.17,0,0,0-88.36,80.32c-20.55,32.57-32.38,69.85-36.75,108A301.38,301.38,0,0,0,261.82,618q4.46,7.66,9.36,15C274.72,638.37,283.38,633.36,279.82,628Z" transform="translate(100 26)"/><path class="cls-10" d="M1720.5,755.5" transform="translate(100 26)"/></g><g id="Layer_9" data-name="Layer 9"><g id="Layer_11" data-name="Layer 11"><path class="cls-11" d="M408,371l-1,0c-5.05,3.63-11.67,5.37-17.69,7.84-1.59,1.28-3.19,2.55-4.79,3.76a5.43,5.43,0,0,1-2.76,1.08c-.37.49-.72,1-1.07,1.51a4.59,4.59,0,0,1-1.9,3.21A29.74,29.74,0,0,0,375.5,402c0,17.12,14.55,31,32.5,31s32.5-13.88,32.5-31S426,371,408,371Z" transform="translate(100 26)"/><path class="cls-11" d="M639.64,363.33a4.54,4.54,0,0,1-2.79,1.23,4.79,4.79,0,0,1-2.71.77,5.34,5.34,0,0,1-1.08-.11,104.22,104.22,0,0,0-25.81,22.07,5.32,5.32,0,0,1-1.59,5.68c.11,1,.28,1.91.48,2.85a48.66,48.66,0,0,1,10.11,8.47c3,1.19,5.93,2.59,8.89,4,5.36,1.26,10.85,2.14,16.36,2.91a55.3,55.3,0,0,1,8.31.53,27.45,27.45,0,0,0-10.17-48.39Z" transform="translate(100 26)"/><path class="cls-12" d="M218.5,893.93s76,84.57,106,103.57,247,86,274,86,133-92,143-114,38-93,38-93" transform="translate(100 26)"/></g><path d="M368.82,407A71.13,71.13,0,0,1,408.2,377.1c21.09-6.25,46.8-2.58,62.84,13.16a39.37,39.37,0,0,1,8.87,12.68c.95,2.26,1.31,4.7,2.27,6.93,1.77,4.12-1.33-4.09-.11-4.22.16,0-.84.79-.28.48-.18.1-1.5,1.7-2.05,2.26a76.22,76.22,0,0,1-7.91,7c-7,5.43-14.95,10.32-23.5,12.77-6.92,2-14.72,1.67-21.88,1.8-10.51.18-20.23-.76-30.16-4.33a51.13,51.13,0,0,1-27.47-23.72c-3.11-5.64-11.75-.6-8.64,5,11.78,21.36,34.44,32.19,58.19,33,9,.29,18.89.48,27.8-1,10.53-1.77,20.44-7.31,28.95-13.55,5.22-3.83,12.5-8.69,15.59-14.66a6.21,6.21,0,0,0,.7-4.54,12.14,12.14,0,0,0-.51-1.25c-.72-1.83-1.21,0-.19,0,.84,0,.59,1.77.39.07-.49-4.17-3.19-8.89-5.35-12.36-14.36-23.05-43.57-30.9-69.2-27.48-23.25,3.1-43.78,17.17-56.37,36.77C356.69,407.35,365.35,412.37,368.82,407Z" transform="translate(100 26)"/><path d="M610.32,393.89c3-13.26,14.77-24.47,27.35-29,13-4.74,28.45-5.92,40.94,1A78.3,78.3,0,0,1,699,382.79l-1.28-4.87a62.56,62.56,0,0,1-7.29,14.78c-5.07,7.56-13.73,11.39-22.43,13.22-11.76,2.48-25.78,2.16-37.16-1.89-8.56-3-15.29-8.84-21.76-15-4.67-4.44-11.75,2.62-7.08,7.07,6.33,6,12.92,11.76,20.93,15.44,10.93,5,23.43,6.22,35.35,5.59a65.58,65.58,0,0,0,29.69-8.46c7.21-4.08,11.93-11.34,15.46-18.65,2.1-4.36,5.86-10,2.48-14.49-4.62-6.06-11.51-11.35-17.76-15.56-18.84-12.73-45.33-11.36-64.33.61-10.65,6.72-20.24,18.1-23.1,30.65-1.43,6.27,8.21,8.94,9.64,2.66Z" transform="translate(100 26)"/><path class="cls-9" d="M473.94,635.89l10,7s37.44,23.8,56,28.58c30.4,7.84,63.11,1.81,72,0,26-9.7,17-24,42-38.58l8.56-4.39" transform="translate(100 26)"/><path d="M471.41,640.21c18.53,13,38.27,25.08,59.34,33.43,18.4,7.29,39.72,7.74,59.2,6,15.37-1.36,31.76-3.12,42.41-15.72,5.19-6.14,8.34-13.65,14.13-19.31,5.38-5.27,11.93-8.42,18.53-11.8,5.73-2.94.68-11.57-5-8.64-5,2.55-10,4.93-14.48,8.27-6.56,4.84-11.4,10.82-15.68,17.7-4,6.35-8.1,11.26-15,14.66-5.75,2.85-12.49,3.45-18.79,4.21-19.35,2.31-40.64,2.76-59.26-3.74-13.68-4.77-26.54-12.43-39-19.77-7.38-4.36-14.36-9-21.39-13.93-5.28-3.7-10.29,5-5,8.63Z" transform="translate(100 26)"/><path class="cls-8" d="M475.5,635.5s43-10.52,58-23.9,37-5,37-5l10,6.69,17-6.69s15-8.36,28,7.53,37.09,14.33,37.09,14.33c-32.68,3.92-77.7,12.06-83.09,12.06C575.5,640.5,512.6,636.7,475.5,635.5Z" transform="translate(100 26)"/><path d="M476.83,640.32a255.76,255.76,0,0,0,35.92-11.6c7.88-3.23,15.81-6.78,22.52-12.12,7.77-6.19,15.85-8.63,25.79-7.2a54.51,54.51,0,0,1,7.45,1.77c1.51.45-.89-.54-.22-.06,1.14.82,2.34,1.57,3.51,2.35,2,1.33,4,3.1,6.18,4.13,2.94,1.4,5.25-.05,8-1.12,10.17-4,20.72-11.19,31-3.71,5.16,3.75,8.49,9.2,14,12.72a48.34,48.34,0,0,0,13.42,5.8,57.71,57.71,0,0,0,18.21,2.16v-10c-16.09,1.95-32.12,4.39-48.14,6.9-11,1.72-22.08,4.07-33.17,5-5.76.5-11.77-.35-17.52-.65-13.19-.71-26.38-1.43-39.58-2.09-16.22-.82-32.45-1.61-48.68-2.14-6.44-.21-6.43,9.79,0,10,28.09.92,56.15,2.5,84.21,4,6.62.35,13.42,1.18,20,1,9.61-.28,19.49-2.69,29-4.19,17.93-2.83,35.86-5.68,53.88-7.86,6.21-.76,6.56-10.4,0-10a49.44,49.44,0,0,1-18.87-2.83,33.39,33.39,0,0,1-13.78-9c-4.38-4.78-8.7-9-15-11A26.49,26.49,0,0,0,601.3,600a24.41,24.41,0,0,0-4.16,1.29c-.49.2-3.69,1.59-1,.49-5.6,2.32-11.3,4.44-16.94,6.66L583,609c-3.87-2.6-7.76-6.06-12.21-7.55A48.65,48.65,0,0,0,545.88,600c-10.4,2.2-17.4,10.17-26.59,14.88a178.58,178.58,0,0,1-27.68,10.85c-5.76,1.82-11.57,3.54-17.44,5C467.92,632.21,470.57,641.86,476.83,640.32Z" transform="translate(100 26)"/></g><g id="Layer_10" data-name="Layer 10"><path class="cls-2" d="M1202.5,1267.5s-27-73-31-89-112-241-124-252-300-55-300-55-20.61,65.81-31,77c-13,14-94,92-122,91s-171-49-213-68-111-95-111-95-177,56-194,83-112,134-116,152l-14,183s1215-9,1214-7S1202.5,1267.5,1202.5,1267.5Z" transform="translate(100 26)"/><path d="M1207.32,1266.17c-8.84-23.92-17.61-47.88-25.72-72.06-2.36-7-4.1-14.33-6.78-21.24-2.84-7.3-6.1-14.46-9.3-21.6-23.86-53.12-49.41-105.56-75.57-157.57-10.21-20.3-20.28-40.8-31.82-60.38-2.32-3.93-4.75-9-8.71-11.58-4.23-2.72-10-3.81-14.81-5-21.18-5.48-42.83-9.34-64.33-13.32-29.9-5.53-59.87-10.65-89.85-15.64-43.08-7.18-86.19-14.17-129.37-20.71l-2.23-.34c-2.75-.42-5.26.66-6.15,3.49-4.78,15.25-10,30.4-15.7,45.32-3.45,9-6.9,18.33-12,26.56-2.93,4.77-7.57,8.64-11.57,12.56C688,969.71,672,984.23,655.33,998c-15.58,12.85-33,27.92-52.29,34.79-12.23,4.35-26.52-1.2-38.61-4.36-22.77-6-45.26-13-67.64-20.24Q461,996.54,425.68,983.64c-17.2-6.32-35.39-12.19-51.27-21.49-21.91-12.83-41.16-30.39-59.52-47.77q-20-18.95-38.81-39.2-1-1.09-2-2.22a5,5,0,0,0-4.87-1.28q-51.78,16.4-102.55,35.9c-23.06,8.88-46.26,18.09-68.1,29.74-7.32,3.91-14.72,8.12-21,13.62-4.94,4.34-8.14,10.34-12,15.58C34.37,1008.4-1.54,1046.58-32,1089c-4.26,6-9.35,12.35-11.77,19.36-1,2.93-1,6.12-1.22,9.19l-4.15,54.19c-3.06,40.07-7.1,80.19-9.2,120.31,0,.82-.13,1.63-.19,2.44-.21,2.68,2.46,5,5,5l32.37-.24,88.1-.64,129.81-.92q79.5-.57,159-1.11,87.14-.6,174.27-1.18,87.72-.59,175.45-1.14,82.2-.51,164.41-1,69.61-.39,139.24-.72,50.14-.22,100.3-.34c16.21,0,32.42-.11,48.62.13a8.72,8.72,0,0,0,1.69.06c.15,0,.34.07.49,0-2.09.63-4.8-4.77-4.57-6.2a5.26,5.26,0,0,0,2.29,5.65c2.9,1.88,6.64-.34,9.32-1.52,5-2.18,9.85-4.6,14.72-7q11.57-5.69,23-11.56c5.73-2.93.68-11.56-5-8.64q-9.57,4.89-19.18,9.66c-4.53,2.25-9.07,4.49-13.64,6.65-1.82.85-3.86,1.55-5.6,2.55-2.77,1.61-2.14-1.11,1.45,1.22l2.3,5.65c1.17-7.43-6.7-6.56-11.45-6.61-7.56-.08-15.11-.08-22.66-.09-28.67,0-57.34.1-86,.21q-65.12.25-130.21.62-79.44.43-158.86.92-88,.54-175.91,1.12-88.37.57-176.75,1.18l-166.25,1.15-139.69,1-101.26.74c-15.7.11-32-1-47.68.34-.68.06-1.39,0-2.08,0l5,5,7.86-102.7,4.8-62.84c.41-5.25.84-10.5,1.21-15.75a13.55,13.55,0,0,1,.11-1.43c.1-.56-.48,1.35.2-.17.54-1.19,2.47-4.82,3.81-7,12.22-19.63,27.62-37.52,42.15-55.44C28.87,1028,46.45,1007,63.4,985.49c9.75-12.34,16.34-25.12,29.37-33.33,18.77-11.82,39.81-20.32,60.32-28.57,23.82-9.58,48-18.35,72.22-26.75,14.61-5.06,29.81-9.14,44.2-14.78.75-.29,1.55-.49,2.32-.74L267,880c27,29.71,56.41,58.87,89.21,82.14,16.14,11.45,33.85,18.62,52.23,25.63,23.44,9,47.15,17.2,71,25.12s47.73,15.54,71.91,22.27c9.08,2.52,18.2,5,27.42,6.9,5.81,1.23,12.11,2.79,18.09,2.32,8-.62,15.59-4.5,22.44-8.34a239,239,0,0,0,28-19,682.74,682.74,0,0,0,54.17-46.65c5.68-5.37,11.33-10.79,16.75-16.41,5.14-5.33,8.32-11.7,11.32-18.41,8.47-18.93,15.13-38.72,21.49-58.44.47-1.46.94-2.92,1.4-4.38l-6.15,3.49q54,8.26,108,17.15c54.66,8.95,109.6,17.53,163.7,29.53,7.26,1.61,14.58,3.21,21.67,5.47,1.11.35,2.22.71,3.3,1.13,1.29.5-.52-.18.21.08a5,5,0,0,1,1.08.54c1.11.71-.82-1,.39.37.45.52.5.72,0,0,.31.45.65.88,1,1.34,10.39,15.64,18.59,33,27.12,49.63q40.51,79.23,77.66,160.19c6.13,13.35,13.07,26.28,17,40.13,7.59,27,18.12,53.37,27.78,79.69q1.32,3.63,2.67,7.26C1199.89,1274.81,1209.56,1272.23,1207.32,1266.17Z" transform="translate(100 26)"/></g></svg>